<svg width="163" height="178" viewBox="0 0 163 178" fill="none" xmlns="http://www.w3.org/2000/svg">
<path d="M0 150.543V127.898C3.26085 127.898 6.03862 127.717 8.33329 127.354C10.628 126.992 12.4395 126.328 13.768 125.362C15.0965 124.275 16.0627 122.765 16.6666 120.833C17.2704 118.78 17.5724 116.183 17.5724 113.043V0H49.9997V114.492C49.9997 122.463 48.9732 129.166 46.92 134.601C44.9877 139.915 41.5457 143.9 36.594 146.557C31.6423 149.214 24.6979 150.543 15.7608 150.543H0Z" fill="#0D2237"/>
<path d="M151.768 177.535C149.111 176.328 145.911 174.335 142.167 171.557C138.423 168.9 134.679 165.7 130.935 161.956C127.312 158.333 124.232 154.589 121.696 150.724C121.213 150.845 120.73 150.905 120.247 150.905C119.764 150.905 119.22 150.905 118.616 150.905C107.626 150.905 98.9304 148.973 92.5294 145.108C86.1285 141.243 81.5391 135.688 78.7614 128.441C75.9836 121.195 74.5947 112.56 74.5947 102.536V48.007C74.5947 37.8621 75.9836 29.2269 78.7614 22.1013C81.5391 14.9758 86.1285 9.54102 92.5294 5.79707C98.9304 1.93236 107.626 0 118.616 0C129.727 0 138.483 1.93236 144.884 5.79707C151.406 9.54102 156.056 14.9758 158.833 22.1013C161.611 29.2269 163 37.8621 163 48.007V102.536C163 109.42 162.336 115.64 161.007 121.195C159.8 126.751 157.746 131.581 154.848 135.688C152.07 139.794 148.326 143.055 143.616 145.47C145.186 147.161 146.817 148.791 148.507 150.362C150.198 152.052 151.889 153.562 153.58 154.891C155.271 156.34 156.961 157.487 158.652 158.333L151.768 177.535Z" fill="#0D2237"/>
</svg>
